<svg width="95" height="82" viewBox="0 0 95 82" fill="none" xmlns="http://www.w3.org/2000/svg">
<path d="M26.632 3L68.368 3C69.0815 3 69.741 3.38011 70.0986 3.99751L90.9523 39.9975C91.3115 40.6176 91.3115 41.3824 90.9523 42.0025L70.0986 78.0025C69.741 78.6199 69.0815 79 68.368 79H26.632C25.9185 79 25.259 78.6199 24.9014 78.0025L4.04769 42.0025C3.68851 41.3824 3.68851 40.6176 4.04769 39.9975L24.9014 3.99751C25.259 3.38011 25.9185 3 26.632 3Z" fill="#FFB400" stroke="black" stroke-width="6"/>
<rect x="43" y="53" width="12" height="10" fill="black"/>
<path d="M42 19L43 30L46 48.5H52L55 30L56 19H42Z" fill="black"/>
</svg>
